# Blender v2.71 (sub 0) OBJ File: 'SpaceshipCockpits.blend'
# www.blender.org
o Button_Cube.1130
v 0.103252 -0.004299 0.081194
v 0.103252 -0.004299 -0.081194
v -0.103252 -0.004299 -0.081194
v -0.103252 -0.004299 0.081194
v 0.103252 0.057503 0.081194
v 0.103252 0.057503 -0.081194
v -0.103252 0.057503 -0.081194
v -0.103252 0.057503 0.081194
v 0.076875 0.057503 -0.103252
v -0.076875 0.057503 -0.103252
v -0.076875 -0.004299 -0.103252
v 0.076875 -0.004299 -0.103252
v -0.076875 0.057503 0.103252
v 0.076875 0.057503 0.103252
v 0.076875 -0.004299 0.103252
v -0.076875 -0.004299 0.103252
vt 0.568584 0.977286
vt 0.566912 0.977286
vt 0.566912 0.981679
vt 0.568584 0.981679
vt 0.573458 0.982276
vt 0.573458 0.983948
vt 0.574388 0.983948
vt 0.574388 0.982276
vt 0.574171 0.981679
vt 0.575843 0.981679
vt 0.575843 0.977286
vt 0.574171 0.977286
vt 0.569298 0.976689
vt 0.569298 0.975017
vt 0.568368 0.975017
vt 0.568368 0.976689
vt 0.569298 0.982276
vt 0.568368 0.982276
vt 0.568367 0.983948
vt 0.569298 0.983948
vt 0.574388 0.976689
vt 0.574388 0.975017
vt 0.573458 0.975017
vt 0.573458 0.976689
vn 0.708600 0.623100 0.331100
vn 0.906000 -0.000000 0.423400
vn 0.906000 0.000000 -0.423400
vn 0.708600 0.623100 -0.331100
vn -0.262800 0.637700 -0.724000
vn -0.341200 0.000000 -0.940000
vn -0.906000 0.000000 -0.423400
vn -0.708600 0.623100 -0.331100
vn -0.906000 -0.000000 0.423400
vn -0.708600 0.623100 0.331100
vn 0.262800 0.637700 0.724000
vn 0.341200 -0.000000 0.940000
vn 0.262800 0.637700 -0.724000
vn 0.341200 0.000000 -0.940000
vn -0.341200 -0.000000 0.940000
vn -0.262800 0.637700 0.724000
s 1
f 5/1/1 1/2/2 2/3/3 6/4/4
f 10/5/5 11/6/6 3/7/7 7/8/8
f 7/9/8 3/10/7 4/11/9 8/12/10
f 14/13/11 15/14/12 1/15/2 5/16/1
f 14/13/11 5/1/1 6/4/4 9/17/13
f 6/18/4 2/19/3 12/20/14 9/17/13
f 9/17/13 12/20/14 11/6/6 10/5/5
f 8/21/10 4/22/9 16/23/15 13/24/16
f 13/24/16 16/23/15 15/14/12 14/13/11
f 8/12/10 13/24/16 10/5/5 7/9/8
f 13/24/16 14/13/11 9/17/13 10/5/5
