# Blender v2.71 (sub 0) OBJ File: 'SpaceshipCockpits.blend'
# www.blender.org
o ButtonStatic_Cube.1136
v 0.103253 0.050098 0.081194
v 0.103253 0.050098 -0.081194
v -0.103252 0.050099 -0.081194
v -0.103252 0.050098 0.081194
v 0.103253 0.111900 0.081194
v 0.103253 0.111900 -0.081194
v -0.103252 0.111901 -0.081194
v -0.103252 0.111900 0.081194
v 0.076876 0.111900 -0.103252
v -0.076875 0.111901 -0.103252
v -0.076875 0.050099 -0.103252
v 0.076876 0.050098 -0.103252
v -0.076875 0.111900 0.103253
v 0.076876 0.111900 0.103252
v 0.076876 0.050098 0.103252
v -0.076875 0.050098 0.103252
v 0.122803 -0.003412 0.096568
v 0.122803 -0.003412 -0.096568
v -0.122803 -0.003412 -0.096568
v -0.122803 -0.003412 0.096568
v 0.122803 0.070089 0.096568
v 0.122803 0.070089 -0.096568
v -0.122803 0.070089 -0.096568
v -0.122803 0.070089 0.096568
v 0.091431 0.070089 -0.122803
v -0.091431 0.070089 -0.122803
v -0.091431 -0.003412 -0.122803
v 0.091431 -0.003412 -0.122803
v -0.091431 0.070089 0.122803
v 0.091431 0.070089 0.122803
v 0.091431 -0.003412 0.122803
v -0.091431 -0.003412 0.122803
vt 0.568584 0.977286
vt 0.566912 0.977286
vt 0.566912 0.981679
vt 0.568584 0.981679
vt 0.573458 0.982276
vt 0.573458 0.983948
vt 0.574388 0.983948
vt 0.574388 0.982276
vt 0.574171 0.981679
vt 0.575843 0.981679
vt 0.575843 0.977286
vt 0.574171 0.977286
vt 0.569298 0.976689
vt 0.569298 0.975017
vt 0.568368 0.975017
vt 0.568368 0.976689
vt 0.569298 0.982276
vt 0.568368 0.982276
vt 0.568367 0.983948
vt 0.569298 0.983948
vt 0.574388 0.976689
vt 0.574388 0.975017
vt 0.573458 0.975017
vt 0.573458 0.976689
vt 0.568579 0.964006
vt 0.566591 0.964006
vt 0.566591 0.969231
vt 0.568580 0.969231
vt 0.574376 0.969941
vt 0.574376 0.971929
vt 0.575482 0.971929
vt 0.575482 0.969941
vt 0.575224 0.969231
vt 0.577213 0.969231
vt 0.577213 0.964006
vt 0.575224 0.964006
vt 0.569428 0.963296
vt 0.569429 0.961307
vt 0.568322 0.961307
vt 0.568322 0.963296
vt 0.569428 0.969941
vt 0.568322 0.969941
vt 0.568322 0.971929
vt 0.569428 0.971929
vt 0.575483 0.963297
vt 0.575483 0.961308
vt 0.574376 0.961308
vt 0.574376 0.963296
vn 0.708600 0.623100 0.331100
vn 0.906000 -0.000000 0.423400
vn 0.906000 0.000000 -0.423400
vn 0.708600 0.623100 -0.331100
vn -0.262800 0.637700 -0.724000
vn -0.341200 0.000000 -0.940000
vn -0.906000 0.000000 -0.423400
vn -0.708600 0.623100 -0.331100
vn -0.906000 -0.000000 0.423400
vn -0.708600 0.623100 0.331100
vn 0.262800 0.637700 0.724000
vn 0.341200 -0.000000 0.940000
vn 0.262800 0.637700 -0.724000
vn 0.341200 0.000000 -0.940000
vn -0.341200 -0.000000 0.940000
vn -0.262800 0.637700 0.724000
s 1
f 5/1/1 1/2/2 2/3/3 6/4/4
f 10/5/5 11/6/6 3/7/7 7/8/8
f 7/9/8 3/10/7 4/11/9 8/12/10
f 14/13/11 15/14/12 1/15/2 5/16/1
f 14/13/11 5/1/1 6/4/4 9/17/13
f 6/18/4 2/19/3 12/20/14 9/17/13
f 9/17/13 12/20/14 11/6/6 10/5/5
f 8/21/10 4/22/9 16/23/15 13/24/16
f 13/24/16 16/23/15 15/14/12 14/13/11
f 8/12/10 13/24/16 10/5/5 7/9/8
f 13/24/16 14/13/11 9/17/13 10/5/5
s 2
f 21/25/1 17/26/2 18/27/3 22/28/4
f 26/29/5 27/30/6 19/31/7 23/32/8
f 23/33/8 19/34/7 20/35/9 24/36/10
f 30/37/11 31/38/12 17/39/2 21/40/1
f 30/37/11 21/25/1 22/28/4 25/41/13
f 22/42/4 18/43/3 28/44/14 25/41/13
f 25/41/13 28/44/14 27/30/6 26/29/5
f 24/45/10 20/46/9 32/47/15 29/48/16
f 29/48/16 32/47/15 31/38/12 30/37/11
f 24/36/10 29/48/16 26/29/5 23/33/8
f 29/48/16 30/37/11 25/41/13 26/29/5
