# Blender v2.71 (sub 0) OBJ File: 'SpaceshipCockpits.blend'
# www.blender.org
o FlipButtonStatic_Cube.1140
v 0.071995 0.009922 0.155590
v 0.071995 0.056086 -0.166227
v -0.075372 0.056086 -0.166227
v -0.075372 0.009922 0.155590
v 0.071995 0.090650 0.167172
v 0.071995 0.136812 -0.154648
v -0.075372 0.136812 -0.154648
v -0.075372 0.090650 0.167172
v 0.071995 0.094013 0.143730
v 0.071995 0.133450 -0.131206
v 0.071995 0.052723 -0.142786
v 0.071995 0.013285 0.132149
v -0.075372 0.133450 -0.131206
v -0.075372 0.094013 0.143730
v -0.075372 0.013285 0.132149
v -0.075372 0.052723 -0.142786
v 0.071995 0.082010 0.001713
v 0.071995 0.058517 -0.001659
v -0.075372 0.082010 0.001713
v -0.075372 0.058517 -0.001659
v 0.122803 -0.002031 0.180746
v 0.122803 -0.002033 -0.180746
v -0.122803 -0.002033 -0.180746
v -0.122803 -0.002031 0.180746
v 0.122803 0.071470 0.180746
v 0.122803 0.071469 -0.180746
v -0.122803 0.071469 -0.180746
v -0.122803 0.071470 0.180746
v 0.091431 0.071469 -0.206980
v -0.091431 0.071469 -0.206980
v -0.091431 -0.002033 -0.206980
v 0.091431 -0.002033 -0.206980
v -0.091431 0.071470 0.206980
v 0.091431 0.071470 0.206980
v 0.091431 -0.002032 0.206980
v -0.091431 -0.002032 0.206980
vt 0.559726 0.980229
vt 0.559742 0.982452
vt 0.560386 0.982447
vt 0.560368 0.980227
vt 0.562568 0.980227
vt 0.562568 0.976251
vt 0.560368 0.976251
vt 0.552220 0.976190
vt 0.552242 0.973985
vt 0.551602 0.973979
vt 0.551580 0.976183
vt 0.551389 0.976244
vt 0.549187 0.976243
vt 0.549185 0.980223
vt 0.551387 0.980224
vt 0.559728 0.976249
vt 0.551491 0.980314
vt 0.551520 0.982543
vt 0.552167 0.982534
vt 0.552138 0.980305
vt 0.555946 0.981132
vt 0.555953 0.981780
vt 0.560381 0.974050
vt 0.559741 0.974046
vt 0.555983 0.975361
vt 0.555988 0.974720
vt 0.552027 0.980225
vt 0.552029 0.976245
vt 0.555878 0.976247
vt 0.555876 0.980227
vt 0.551242 0.970257
vt 0.551242 0.972246
vt 0.561022 0.972246
vt 0.561022 0.970257
vt 0.561732 0.964461
vt 0.563720 0.964461
vt 0.563720 0.963355
vt 0.561732 0.963355
vt 0.561022 0.963612
vt 0.561022 0.961624
vt 0.551242 0.961624
vt 0.551242 0.963613
vt 0.550532 0.969409
vt 0.548543 0.969409
vt 0.548544 0.970516
vt 0.550532 0.970515
vt 0.561732 0.969408
vt 0.561732 0.970515
vt 0.563720 0.970515
vt 0.563720 0.969408
vt 0.550532 0.963355
vt 0.548543 0.963354
vt 0.548543 0.964461
vt 0.550532 0.964461
vn 0.682500 0.707100 0.184900
vn 1.000000 -0.000000 0.000000
vn 0.707100 0.100400 -0.699900
vn 0.577300 0.653500 -0.489500
vn -0.707100 0.100400 -0.699900
vn -0.577300 0.653500 -0.489500
vn -0.682500 0.730600 0.021200
vn -1.000000 0.000000 0.000000
vn -0.707100 -0.100400 0.699900
vn -0.577300 0.489500 0.653500
vn 0.707100 -0.100400 0.699900
vn 0.577300 0.489500 0.653500
vn -0.682500 0.707100 0.184900
vn 0.682500 0.730600 0.021200
vn 0.761400 0.641700 0.092000
vn -0.761400 0.641700 0.092000
vn 0.708600 0.623100 0.331100
vn 0.905900 -0.000000 0.423400
vn 0.905900 0.000000 -0.423400
vn 0.708600 0.623100 -0.331200
vn -0.262800 0.637700 -0.724000
vn -0.341200 0.000000 -0.940000
vn -0.905900 0.000000 -0.423400
vn -0.708600 0.623100 -0.331200
vn -0.905900 -0.000000 0.423400
vn -0.708600 0.623100 0.331100
vn 0.262800 0.637700 0.724000
vn 0.341200 -0.000000 0.940000
vn 0.262800 0.637700 -0.724000
vn 0.341200 0.000000 -0.940000
vn -0.341200 -0.000000 0.940000
vn -0.262800 0.637700 0.724000
s 1
f 10/1/1 11/2/2 2/3/3 6/4/4
f 6/4/4 2/5/3 3/6/5 7/7/6
f 14/8/7 15/9/8 4/10/9 8/11/10
f 8/12/10 4/13/9 1/14/11 5/15/12
f 13/16/13 10/1/1 6/4/4 7/7/6
f 5/17/12 1/18/11 12/19/2 9/20/14
f 17/21/15 18/22/2 11/2/2 10/1/1
f 7/7/6 3/23/5 16/24/8 13/16/13
f 19/25/16 20/26/8 15/9/8 14/8/7
f 8/12/10 5/15/12 9/27/14 14/28/7
f 19/29/16 17/30/15 10/1/1 13/16/13
f 9/20/14 12/19/2 18/22/2 17/21/15
f 13/16/13 16/24/8 20/26/8 19/25/16
f 14/28/7 9/27/14 17/30/15 19/29/16
s 2
f 25/31/17 21/32/18 22/33/19 26/34/20
f 30/35/21 31/36/22 23/37/23 27/38/24
f 27/39/24 23/40/23 24/41/25 28/42/26
f 34/43/27 35/44/28 21/45/18 25/46/17
f 34/43/27 25/31/17 26/34/20 29/47/29
f 26/48/20 22/49/19 32/50/30 29/47/29
f 29/47/29 32/50/30 31/36/22 30/35/21
f 28/51/26 24/52/25 36/53/31 33/54/32
f 33/54/32 36/53/31 35/44/28 34/43/27
f 28/42/26 33/54/32 30/35/21 27/39/24
f 33/54/32 34/43/27 29/47/29 30/35/21
