# Blender v2.71 (sub 0) OBJ File: 'SpaceshipCockpits.blend'
# www.blender.org
o FlipButton_Cube.1128
v 0.073684 -0.063444 0.155117
v 0.073684 -0.017280 -0.166700
v -0.073684 -0.017280 -0.166700
v -0.073684 -0.063444 0.155117
v 0.073684 0.017284 0.166698
v 0.073684 0.063446 -0.155121
v -0.073684 0.063446 -0.155121
v -0.073684 0.017284 0.166698
v 0.073684 0.020647 0.143257
v 0.073684 0.060084 -0.131679
v 0.073684 -0.020643 -0.143259
v 0.073684 -0.060082 0.131676
v -0.073684 0.060084 -0.131679
v -0.073684 0.020647 0.143257
v -0.073684 -0.060082 0.131676
v -0.073684 -0.020643 -0.143259
v 0.073684 0.008644 0.001240
v 0.073684 -0.014849 -0.002132
v -0.073684 0.008644 0.001240
v -0.073684 -0.014849 -0.002132
vt 0.559726 0.980229
vt 0.559742 0.982452
vt 0.560386 0.982447
vt 0.560368 0.980227
vt 0.562568 0.980227
vt 0.562568 0.976251
vt 0.560368 0.976251
vt 0.552220 0.976190
vt 0.552242 0.973985
vt 0.551602 0.973979
vt 0.551580 0.976183
vt 0.551389 0.976244
vt 0.549187 0.976243
vt 0.549185 0.980223
vt 0.551387 0.980224
vt 0.559728 0.976249
vt 0.551491 0.980314
vt 0.551520 0.982543
vt 0.552167 0.982534
vt 0.552138 0.980305
vt 0.555946 0.981132
vt 0.555953 0.981780
vt 0.560381 0.974050
vt 0.559741 0.974046
vt 0.555983 0.975361
vt 0.555988 0.974720
vt 0.552027 0.980225
vt 0.552029 0.976245
vt 0.555878 0.976247
vt 0.555876 0.980227
vn 0.682500 0.707100 0.184900
vn 1.000000 -0.000000 0.000000
vn 0.707100 0.100400 -0.699900
vn 0.577300 0.653500 -0.489500
vn -0.707100 0.100400 -0.699900
vn -0.577300 0.653500 -0.489500
vn -0.682500 0.730600 0.021200
vn -1.000000 0.000000 0.000000
vn -0.707100 -0.100400 0.699900
vn -0.577300 0.489500 0.653500
vn 0.707100 -0.100400 0.699900
vn 0.577300 0.489500 0.653500
vn -0.682500 0.707100 0.184900
vn 0.682500 0.730600 0.021200
vn 0.761400 0.641700 0.092000
vn -0.761400 0.641700 0.092000
s 1
f 10/1/1 11/2/2 2/3/3 6/4/4
f 6/4/4 2/5/3 3/6/5 7/7/6
f 14/8/7 15/9/8 4/10/9 8/11/10
f 8/12/10 4/13/9 1/14/11 5/15/12
f 13/16/13 10/1/1 6/4/4 7/7/6
f 5/17/12 1/18/11 12/19/2 9/20/14
f 17/21/15 18/22/2 11/2/2 10/1/1
f 7/7/6 3/23/5 16/24/8 13/16/13
f 19/25/16 20/26/8 15/9/8 14/8/7
f 8/12/10 5/15/12 9/27/14 14/28/7
f 19/29/16 17/30/15 10/1/1 13/16/13
f 9/20/14 12/19/2 18/22/2 17/21/15
f 13/16/13 16/24/8 20/26/8 19/25/16
f 14/28/7 9/27/14 17/30/15 19/29/16
