# Blender v2.71 (sub 0) OBJ File: 'SpaceshipCockpits.blend'
# www.blender.org
o PanelType2Right_Cube.1124
v -0.928158 -0.001859 -0.698626
v -0.928158 0.121123 -0.698626
v 0.928158 0.121123 -0.698626
v 0.928158 -0.001859 -0.698626
v -0.928158 -0.001860 0.698626
v -0.928158 0.121122 0.698626
v 0.928158 0.121122 0.698626
v 0.928158 -0.001860 0.698626
v -1.015079 -0.001860 0.585962
v -1.015079 0.121122 0.585962
v 1.015079 0.121122 0.585962
v 1.015079 -0.001860 0.585962
v -1.015079 0.121123 -0.587397
v 1.015079 0.121123 -0.587397
v 1.015079 -0.001859 -0.587397
v -1.015079 -0.001859 -0.587397
v -0.920143 0.121123 -0.572618
v -0.869903 0.121123 -0.636906
v -0.869566 0.121122 0.636908
v 0.869566 0.121122 0.636908
v 0.920143 0.121123 -0.572618
v 0.869904 0.121123 -0.636906
v -0.920143 0.121122 0.571352
v 0.920143 0.121122 0.571352
v -0.920143 0.060673 -0.572618
v -0.869903 0.060673 -0.636906
v -0.869566 0.060672 0.636908
v 0.869566 0.060672 0.636908
v 0.920143 0.060673 -0.572618
v 0.869904 0.060673 -0.636906
v -0.920143 0.060672 0.571352
v 0.920143 0.060672 0.571352
vt 0.213671 0.853922
vt 0.216998 0.853922
vt 0.216998 0.857741
vt 0.213671 0.857741
vt 0.645874 0.985574
vt 0.648610 0.985574
vt 0.648606 0.987571
vt 0.645876 0.987568
vt 0.271925 0.853923
vt 0.275252 0.853923
vt 0.275252 0.857742
vt 0.271925 0.857742
vt 0.219350 0.860259
vt 0.219350 0.856931
vt 0.269573 0.856932
vt 0.269573 0.860259
vt 0.269573 0.815801
vt 0.269573 0.819129
vt 0.219350 0.819129
vt 0.219350 0.815801
vt 0.213672 0.818327
vt 0.216999 0.818327
vt 0.216999 0.822177
vt 0.213672 0.822177
vt 0.618142 0.992035
vt 0.580537 0.992252
vt 0.580526 0.990265
vt 0.618135 0.990044
vt 0.271925 0.818327
vt 0.275252 0.818327
vt 0.275252 0.822177
vt 0.271925 0.822177
vt 0.686452 0.985710
vt 0.686445 0.987709
vt 0.219567 0.853522
vt 0.220926 0.855262
vt 0.267988 0.820799
vt 0.220936 0.820798
vt 0.267997 0.855262
vt 0.269356 0.853523
vt 0.219567 0.822572
vt 0.269356 0.822572
vt 0.475636 0.487064
vt 0.525425 0.487064
vt 0.524066 0.488803
vt 0.476995 0.488803
vt 0.477004 0.454340
vt 0.524056 0.454340
vt 0.525425 0.456113
vt 0.475636 0.456114
vt 0.577816 0.992267
vt 0.577804 0.990280
vt 0.678409 0.992267
vt 0.620828 0.992035
vt 0.620831 0.990038
vt 0.678417 0.990266
vt 0.689151 0.985720
vt 0.689144 0.987719
vt 0.588577 0.985728
vt 0.588582 0.987719
vn -0.945500 0.000000 -0.325600
vn -0.726000 0.640600 -0.250000
vn -0.343700 0.620500 -0.704900
vn -0.438300 0.000000 -0.898800
vn -0.251800 0.821000 -0.512300
vn -0.583400 0.787400 -0.198900
vn -0.726300 0.641200 -0.247600
vn -0.346100 0.620000 -0.704100
vn 0.726000 0.640600 -0.250000
vn 0.945500 0.000000 -0.325600
vn 0.438300 0.000000 -0.898800
vn 0.343700 0.620500 -0.704900
vn 0.441100 -0.000000 0.897500
vn 0.346100 0.620000 0.704100
vn -0.346100 0.620000 0.704100
vn -0.441100 -0.000000 0.897500
vn -0.726300 0.641200 0.247600
vn -0.946500 -0.000000 0.322700
vn 0.581800 0.788200 0.200400
vn 0.583400 0.787400 -0.198900
vn 0.726300 0.641200 -0.247600
vn 0.726000 0.640600 0.250000
vn 0.946500 -0.000000 0.322700
vn 0.726300 0.641200 0.247600
vn -0.581800 0.788200 0.200400
vn -0.726000 0.640600 0.250000
vn 0.250700 0.820200 0.514100
vn 0.251800 0.821000 -0.512300
vn -0.250700 0.820200 0.514100
vn -0.343700 0.620500 0.704900
vn 0.343700 0.620500 0.704900
vn 0.346100 0.620000 -0.704100
s 1
f 16/1/1 13/2/2 2/3/3 1/4/4
f 20/5/5 24/6/6 32/7/7 28/8/8
f 14/9/9 15/10/10 4/11/11 3/12/12
f 1/13/4 2/14/3 3/15/12 4/16/11
f 8/17/13 7/18/14 6/19/15 5/20/16
f 5/21/16 6/22/15 10/23/17 9/24/18
f 17/25/19 23/26/20 31/27/21 25/28/22
f 7/29/14 8/30/13 12/31/23 11/32/24
f 9/24/18 10/23/17 13/2/2 16/1/1
f 24/6/6 21/33/25 29/34/26 32/7/7
f 11/32/24 12/31/23 15/10/10 14/9/9
f 17/35/19 18/36/27 2/14/3 13/2/2
f 20/37/5 19/38/28 6/19/15 7/18/14
f 22/39/29 21/40/25 14/9/9 3/15/12
f 18/36/27 22/39/29 3/15/12 2/14/3
f 19/38/28 23/41/20 10/23/17 6/19/15
f 24/42/6 20/37/5 7/18/14 11/32/24
f 23/41/20 17/35/19 13/2/2 10/23/17
f 21/40/25 24/42/6 11/32/24 14/9/9
f 25/43/22 29/44/26 30/45/30 26/46/31
f 27/47/32 28/48/8 32/49/7 31/50/21
f 31/50/21 32/49/7 29/44/26 25/43/22
f 23/26/20 19/51/28 27/52/32 31/27/21
f 22/53/29 18/54/27 26/55/31 30/56/30
f 21/33/25 22/57/29 30/58/30 29/34/26
f 19/59/28 20/5/5 28/8/8 27/60/32
f 18/54/27 17/25/19 25/28/22 26/55/31
