# Blender v2.71 (sub 0) OBJ File: 'SpaceshipCockpits.blend'
# www.blender.org
o SwitchBase_Cube.1133
v 0.059375 -0.004198 0.145761
v 0.059375 -0.004198 -0.145762
v -0.059375 -0.004198 -0.145762
v -0.059375 -0.004198 0.145761
v 0.059375 0.069303 0.145762
v 0.059375 0.069304 -0.145761
v -0.059375 0.069304 -0.145761
v -0.059375 0.069303 0.145762
v 0.044207 0.069304 -0.185360
v -0.044207 0.069304 -0.185360
v -0.044207 -0.004198 -0.185360
v 0.044207 -0.004198 -0.185360
v -0.044207 0.069303 0.185360
v 0.044207 0.069303 0.185360
v 0.044207 -0.004198 0.185360
v -0.044207 -0.004198 0.185360
v -0.044207 0.069304 -0.158950
v -0.044207 0.069303 0.158950
v 0.044207 0.069304 -0.158950
v 0.044207 0.069303 0.158950
v -0.044207 0.049063 -0.158950
v -0.044207 0.049063 0.158950
v 0.044207 0.049063 -0.158950
v 0.044207 0.049063 0.158950
vt 0.590400 0.964666
vt 0.592391 0.964667
vt 0.592392 0.963518
vt 0.590400 0.963517
vt 0.580370 0.967057
vt 0.578383 0.967057
vt 0.578383 0.968204
vt 0.580370 0.968204
vt 0.590397 0.968209
vt 0.592388 0.968211
vt 0.592389 0.967062
vt 0.590398 0.967060
vt 0.580369 0.963520
vt 0.578382 0.963520
vt 0.578382 0.964667
vt 0.580369 0.964666
vt 0.589684 0.964666
vt 0.589683 0.967059
vt 0.589326 0.967469
vt 0.581440 0.964256
vt 0.581084 0.964666
vt 0.589327 0.964256
vt 0.581440 0.967467
vt 0.581084 0.967057
vt 0.581439 0.969455
vt 0.589326 0.969457
vt 0.576940 0.960526
vt 0.576942 0.961073
vt 0.579329 0.961065
vt 0.579328 0.960519
vt 0.578911 0.970326
vt 0.578911 0.972718
vt 0.587511 0.972718
vt 0.587511 0.970326
vt 0.587915 0.960495
vt 0.587915 0.961043
vt 0.590308 0.961043
vt 0.590309 0.960494
vt 0.598925 0.961073
vt 0.598926 0.960524
vt 0.589327 0.962267
vt 0.581439 0.962267
vn -0.453700 0.599000 -0.659700
vn -0.566700 0.000000 -0.823900
vn -0.983300 0.000000 -0.181900
vn -0.731400 0.668400 -0.135300
vn 0.453700 0.599000 0.659700
vn 0.566700 -0.000000 0.823900
vn 0.983300 -0.000000 0.181900
vn 0.731400 0.668400 0.135300
vn 0.731400 0.668400 -0.135300
vn 0.983300 0.000000 -0.181900
vn 0.566700 0.000000 -0.823900
vn 0.453700 0.599000 -0.659700
vn -0.731400 0.668400 0.135300
vn -0.983300 -0.000000 0.181900
vn -0.566700 -0.000000 0.823900
vn -0.453700 0.599000 0.659700
vn 0.301500 0.904500 0.301500
vn -0.301500 0.904500 0.301500
vn 0.301500 0.904500 -0.301500
vn -0.301500 0.904500 -0.301500
vn 0.577300 0.577300 0.577300
vn -0.577300 0.577300 0.577300
vn 0.577300 0.577300 -0.577300
vn -0.577300 0.577300 -0.577300
s 1
f 10/1/1 11/2/2 3/3/3 7/4/4
f 14/5/5 15/6/6 1/7/7 5/8/8
f 6/9/9 2/10/10 12/11/11 9/12/12
f 9/12/12 12/11/11 11/2/2 10/1/1
f 8/13/13 4/14/14 16/15/15 13/16/16
f 13/16/16 16/15/15 15/6/6 14/5/5
f 17/17/17 19/18/18 9/12/12 10/1/1
f 19/18/18 6/19/9 9/12/12
f 8/20/13 18/21/19 17/17/17 7/22/4
f 14/5/5 5/23/8 20/24/20
f 5/23/8 1/25/7 2/26/10 6/19/9
f 13/16/16 14/5/5 20/24/20 18/21/19
f 17/27/17 21/28/21 23/29/22 19/30/18
f 22/31/23 24/32/24 23/33/22 21/34/21
f 20/35/20 24/36/24 22/37/23 18/38/19
f 19/30/18 23/29/22 24/36/24 20/35/20
f 18/38/19 22/37/23 21/39/21 17/40/17
f 20/24/20 5/23/8 6/19/9 19/18/18
f 7/22/4 17/17/17 10/1/1
f 8/20/13 13/16/16 18/21/19
f 7/22/4 3/41/3 4/42/14 8/20/13
