# Blender v2.71 (sub 0) OBJ File: 'SpaceshipCockpits.blend'
# www.blender.org
o SwitchStatic_Cube.1138
v 0.025904 0.038646 0.010872
v 0.025904 0.020664 -0.007495
v -0.025903 0.020664 -0.007495
v -0.025903 0.038646 0.010872
v 0.027985 0.249347 -0.195408
v 0.027985 0.231366 -0.213775
v -0.027984 0.231366 -0.213775
v -0.027984 0.249347 -0.195408
v 0.048898 0.227625 -0.174141
v 0.048898 0.209644 -0.192508
v -0.048897 0.209644 -0.192508
v -0.048897 0.227625 -0.174141
v 0.048898 0.126120 -0.110739
v -0.048897 0.126120 -0.110739
v -0.048897 0.144102 -0.092372
v 0.048898 0.144102 -0.092372
v 0.059375 -0.004198 0.145761
v 0.059375 -0.004198 -0.145762
v -0.059375 -0.004198 -0.145762
v -0.059375 -0.004198 0.145761
v 0.059375 0.069303 0.145762
v 0.059375 0.069304 -0.145761
v -0.059375 0.069304 -0.145761
v -0.059375 0.069303 0.145762
v 0.044207 0.069304 -0.185360
v -0.044207 0.069304 -0.185360
v -0.044207 -0.004198 -0.185360
v 0.044207 -0.004198 -0.185360
v -0.044207 0.069303 0.185360
v 0.044207 0.069303 0.185360
v 0.044207 -0.004198 0.185360
v -0.044207 -0.004198 0.185360
v -0.044207 0.069304 -0.158950
v -0.044207 0.069303 0.158950
v 0.044207 0.069304 -0.158950
v 0.044207 0.069303 0.158950
v -0.044207 0.049063 -0.158950
v -0.044207 0.049063 0.158950
v 0.044207 0.049063 -0.158950
v 0.044207 0.049063 0.158950
vt 0.596200 0.976153
vt 0.596207 0.980152
vt 0.596895 0.980151
vt 0.596888 0.976153
vt 0.599533 0.966365
vt 0.598912 0.962365
vt 0.597508 0.962365
vt 0.596883 0.966363
vt 0.596884 0.962321
vt 0.596189 0.962321
vt 0.596187 0.966363
vt 0.595566 0.962362
vt 0.594161 0.962362
vt 0.593536 0.966362
vt 0.596189 0.970527
vt 0.596191 0.972033
vt 0.596882 0.972032
vt 0.596881 0.970526
vt 0.596194 0.973024
vt 0.596883 0.973022
vt 0.598965 0.970355
vt 0.599532 0.969531
vt 0.596882 0.969530
vt 0.597448 0.970354
vt 0.596186 0.969531
vt 0.595619 0.970355
vt 0.593536 0.969530
vt 0.594102 0.970354
vt 0.590400 0.964666
vt 0.592391 0.964667
vt 0.592392 0.963518
vt 0.590400 0.963517
vt 0.580370 0.967057
vt 0.578383 0.967057
vt 0.578383 0.968204
vt 0.580370 0.968204
vt 0.590397 0.968209
vt 0.592388 0.968211
vt 0.592389 0.967062
vt 0.590398 0.967060
vt 0.580369 0.963520
vt 0.578382 0.963520
vt 0.578382 0.964667
vt 0.580369 0.964666
vt 0.589684 0.964666
vt 0.589683 0.967059
vt 0.589326 0.967469
vt 0.581440 0.964256
vt 0.581084 0.964666
vt 0.589327 0.964256
vt 0.581440 0.967467
vt 0.581084 0.967057
vt 0.581439 0.969455
vt 0.589326 0.969457
vt 0.576940 0.960526
vt 0.576942 0.961073
vt 0.579329 0.961065
vt 0.579328 0.960519
vt 0.578911 0.970326
vt 0.578911 0.972718
vt 0.587511 0.972718
vt 0.587511 0.970326
vt 0.587915 0.960495
vt 0.587915 0.961043
vt 0.590308 0.961043
vt 0.590309 0.960494
vt 0.598925 0.961073
vt 0.598926 0.960524
vt 0.589327 0.962267
vt 0.581439 0.962267
vn 0.721500 0.442900 0.532200
vn 0.665200 0.443200 0.600900
vn 0.665200 -0.591400 -0.455900
vn 0.721500 -0.522700 -0.454100
vn -0.665200 -0.591400 -0.455900
vn -0.721500 -0.522700 -0.454100
vn -0.665200 0.443200 0.600900
vn -0.721500 0.442900 0.532200
vn -0.366700 0.929100 -0.047800
vn 0.366700 0.929100 -0.047800
vn 0.366700 0.067500 -0.927900
vn -0.366700 0.067500 -0.927900
vn 0.728900 0.613800 0.303100
vn 0.728900 -0.290000 -0.620100
vn -0.728900 -0.290000 -0.620100
vn -0.728900 0.613800 0.303100
vn -0.453700 0.599000 -0.659700
vn -0.566700 0.000000 -0.823900
vn -0.983300 0.000000 -0.181900
vn -0.731400 0.668400 -0.135300
vn 0.453700 0.599000 0.659700
vn 0.566700 -0.000000 0.823900
vn 0.983300 -0.000000 0.181900
vn 0.731400 0.668400 0.135300
vn 0.731400 0.668400 -0.135300
vn 0.983300 0.000000 -0.181900
vn 0.566700 0.000000 -0.823900
vn 0.453700 0.599000 -0.659700
vn -0.731400 0.668400 0.135300
vn -0.983300 -0.000000 0.181900
vn -0.566700 -0.000000 0.823900
vn -0.453700 0.599000 0.659700
vn 0.301500 0.904500 0.301500
vn -0.301500 0.904500 0.301500
vn 0.301500 0.904500 -0.301500
vn -0.301500 0.904500 -0.301500
vn 0.577300 0.577300 0.577300
vn -0.577300 0.577300 0.577300
vn 0.577300 0.577300 -0.577300
vn -0.577300 0.577300 -0.577300
s 1
f 16/1/1 1/2/2 2/3/3 13/4/4
f 13/5/4 2/6/3 3/7/5 14/8/6
f 14/8/6 3/9/5 4/10/7 15/11/8
f 15/11/8 4/12/7 1/13/2 16/14/1
f 8/15/9 5/16/10 6/17/11 7/18/12
f 5/16/10 9/19/13 10/20/14 6/17/11
f 6/21/11 10/22/14 11/23/15 7/24/12
f 7/18/12 11/23/15 12/25/16 8/15/9
f 8/26/9 12/25/16 9/27/13 5/28/10
f 9/19/13 16/1/1 13/4/4 10/20/14
f 10/22/14 13/5/4 14/8/6 11/23/15
f 11/23/15 14/8/6 15/11/8 12/25/16
f 12/25/16 15/11/8 16/14/1 9/27/13
s 2
f 26/29/17 27/30/18 19/31/19 23/32/20
f 30/33/21 31/34/22 17/35/23 21/36/24
f 22/37/25 18/38/26 28/39/27 25/40/28
f 25/40/28 28/39/27 27/30/18 26/29/17
f 24/41/29 20/42/30 32/43/31 29/44/32
f 29/44/32 32/43/31 31/34/22 30/33/21
f 33/45/33 35/46/34 25/40/28 26/29/17
f 35/46/34 22/47/25 25/40/28
f 24/48/29 34/49/35 33/45/33 23/50/20
f 30/33/21 21/51/24 36/52/36
f 21/51/24 17/53/23 18/54/26 22/47/25
f 29/44/32 30/33/21 36/52/36 34/49/35
f 33/55/33 37/56/37 39/57/38 35/58/34
f 38/59/39 40/60/40 39/61/38 37/62/37
f 36/63/36 40/64/40 38/65/39 34/66/35
f 35/58/34 39/57/38 40/64/40 36/63/36
f 34/66/35 38/65/39 37/67/37 33/68/33
f 36/52/36 21/51/24 22/47/25 35/46/34
f 23/50/20 33/45/33 26/29/17
f 24/48/29 29/44/32 34/49/35
f 23/50/20 19/69/19 20/70/30 24/48/29
