# Blender v2.71 (sub 0) OBJ File: 'SpaceshipCockpits.blend'
# www.blender.org
o Switch_Cube.1132
v 0.025904 -0.019331 0.012852
v 0.025904 -0.019331 -0.012852
v -0.025904 -0.019331 -0.012852
v -0.025904 -0.019331 0.012852
v 0.027984 0.275536 0.012851
v 0.027984 0.275536 -0.012853
v -0.027984 0.275536 -0.012853
v -0.027984 0.275536 0.012851
v 0.048898 0.245136 0.012851
v 0.048898 0.245136 -0.012853
v -0.048898 0.245136 -0.012853
v -0.048898 0.245136 0.012851
v 0.048898 0.128250 -0.012853
v -0.048898 0.128250 -0.012853
v -0.048898 0.128250 0.012851
v 0.048898 0.128250 0.012851
vt 0.596200 0.976153
vt 0.596207 0.980152
vt 0.596895 0.980151
vt 0.596888 0.976153
vt 0.599533 0.966365
vt 0.598912 0.962365
vt 0.597508 0.962365
vt 0.596883 0.966363
vt 0.596884 0.962321
vt 0.596189 0.962321
vt 0.596187 0.966363
vt 0.595566 0.962362
vt 0.594161 0.962362
vt 0.593536 0.966362
vt 0.596189 0.970527
vt 0.596191 0.972033
vt 0.596882 0.972032
vt 0.596881 0.970526
vt 0.596194 0.973024
vt 0.596883 0.973022
vt 0.598965 0.970355
vt 0.599532 0.969531
vt 0.596882 0.969530
vt 0.597448 0.970354
vt 0.596186 0.969531
vt 0.595619 0.970355
vt 0.593536 0.969530
vt 0.594102 0.970354
vn 0.721500 -0.055800 0.690100
vn 0.665200 -0.103600 0.739500
vn 0.665200 -0.103600 -0.739500
vn 0.721500 -0.055800 -0.690100
vn -0.665200 -0.103600 -0.739500
vn -0.721500 -0.055800 -0.690100
vn -0.665200 -0.103600 0.739500
vn -0.721500 -0.055800 0.690100
vn -0.366700 0.697300 0.615800
vn 0.366700 0.697300 0.615800
vn 0.366700 0.697300 -0.615800
vn -0.366700 0.697300 -0.615800
vn 0.728900 0.226500 0.646000
vn 0.728900 0.226500 -0.646000
vn -0.728900 0.226500 -0.646000
vn -0.728900 0.226500 0.646000
s 1
f 16/1/1 1/2/2 2/3/3 13/4/4
f 13/5/4 2/6/3 3/7/5 14/8/6
f 14/8/6 3/9/5 4/10/7 15/11/8
f 15/11/8 4/12/7 1/13/2 16/14/1
f 8/15/9 5/16/10 6/17/11 7/18/12
f 5/16/10 9/19/13 10/20/14 6/17/11
f 6/21/11 10/22/14 11/23/15 7/24/12
f 7/18/12 11/23/15 12/25/16 8/15/9
f 8/26/9 12/25/16 9/27/13 5/28/10
f 9/19/13 16/1/1 13/4/4 10/20/14
f 10/22/14 13/5/4 14/8/6 11/23/15
f 11/23/15 14/8/6 15/11/8 12/25/16
f 12/25/16 15/11/8 16/14/1 9/27/13
