# Blender v2.71 (sub 0) OBJ File: 'SpaceshipCockpits.blend'
# www.blender.org
o ThrottleBase_Cube.1121
v -0.215747 -0.018507 0.917763
v -0.215747 -0.018507 -0.917763
v 0.215747 -0.018507 -0.917763
v 0.215747 -0.018507 0.917763
v -0.215747 0.338506 0.917763
v -0.215747 0.338507 -0.917763
v 0.215747 0.338507 -0.917763
v 0.215747 0.338506 0.917763
v -0.327125 0.338506 0.800572
v -0.327125 0.338507 -0.800572
v -0.327125 -0.018507 -0.800572
v -0.327125 -0.018507 0.800572
v 0.327125 0.338507 -0.800572
v 0.327125 0.338506 0.800572
v 0.327125 -0.018507 0.800572
v 0.327125 -0.018507 -0.800572
v -0.190758 0.338507 -0.688331
v -0.190758 0.338507 0.688331
v 0.190758 0.338507 0.688331
v 0.190758 0.338507 -0.688331
v -0.190758 0.244305 -0.688331
v -0.190758 0.244304 0.688331
v 0.190758 0.244304 0.688331
v 0.190758 0.244305 -0.688331
vt 0.214054 0.414128
vt 0.214054 0.409753
vt 0.223713 0.409753
vt 0.223713 0.414127
vt 0.214054 0.398079
vt 0.223713 0.398079
vt 0.164393 0.393705
vt 0.164393 0.398079
vt 0.154734 0.398079
vt 0.154735 0.393705
vt 0.164393 0.409753
vt 0.154734 0.409753
vt 0.210883 0.395066
vt 0.210883 0.412767
vt 0.164393 0.414127
vt 0.154734 0.414127
vt 0.167564 0.412767
vt 0.210883 0.422426
vt 0.167564 0.422426
vt 0.214053 0.393705
vt 0.223713 0.393705
vt 0.167564 0.395066
vt 0.167564 0.385407
vt 0.210883 0.385407
vt 0.064255 0.384717
vt 0.064257 0.397307
vt 0.061149 0.397306
vt 0.061147 0.384718
vt 0.170601 0.409077
vt 0.207846 0.409077
vt 0.207846 0.398755
vt 0.170601 0.398755
vt 0.227854 0.390526
vt 0.265099 0.390526
vt 0.265099 0.400848
vt 0.227854 0.400848
vt 0.064241 0.442733
vt 0.064232 0.455323
vt 0.061122 0.455322
vt 0.061132 0.442731
vt 0.064220 0.500763
vt 0.061110 0.500762
vn -0.719400 0.632400 -0.287300
vn -0.306900 0.628200 -0.715000
vn -0.394400 0.000000 -0.918900
vn -0.928700 0.000000 -0.370900
vn 0.306900 0.628200 -0.715000
vn 0.394400 0.000000 -0.918900
vn 0.719400 0.632400 0.287300
vn 0.306900 0.628200 0.715000
vn 0.394400 -0.000000 0.918900
vn 0.928700 -0.000000 0.370900
vn -0.306900 0.628200 0.715000
vn -0.394400 -0.000000 0.918900
vn 0.719400 0.632400 -0.287300
vn -0.719400 0.632400 0.287300
vn -0.928700 -0.000000 0.370900
vn 0.928700 0.000000 -0.370900
vn -0.301500 0.904500 0.301500
vn 0.301500 0.904500 0.301500
vn 0.577300 0.577300 0.577300
vn -0.577300 0.577300 0.577300
vn 0.301500 0.904500 -0.301500
vn -0.301500 0.904500 -0.301500
vn -0.577300 0.577300 -0.577300
vn 0.577300 0.577300 -0.577300
s 1
f 10/1/1 6/2/2 2/3/3 11/4/4
f 6/2/2 7/5/5 3/6/6 2/3/3
f 14/7/7 8/8/8 4/9/9 15/10/10
f 8/8/8 5/11/11 1/12/12 4/9/9
f 13/13/13 7/5/5 6/2/2 10/14/1
f 5/11/11 9/15/14 12/16/15 1/12/12
f 9/17/14 10/14/1 11/18/4 12/19/15
f 7/5/5 13/20/13 16/21/16 3/6/6
f 13/13/13 14/22/7 15/23/10 16/24/16
f 8/8/8 14/22/7 9/17/14 5/11/11
f 20/25/17 17/26/18 21/27/19 24/28/20
f 18/29/21 17/30/18 10/14/1 9/17/14
f 20/31/17 19/32/22 14/22/7 13/13/13
f 19/32/22 18/29/21 9/17/14 14/22/7
f 17/30/18 20/31/17 13/13/13 10/14/1
f 23/33/23 24/34/20 21/35/19 22/36/24
f 18/37/21 19/38/22 23/39/23 22/40/24
f 19/38/22 20/41/17 24/42/20 23/39/23
f 17/26/18 18/37/21 22/40/24 21/27/19
