# Blender v2.71 (sub 0) OBJ File: 'SpaceshipCockpits.blend'
# www.blender.org
o Throttle_Cube.1119
v -0.154352 0.731069 1.162275
v -0.154352 0.731069 0.549724
v 0.154352 0.731069 0.549724
v 0.154352 0.731069 1.162275
v -0.154352 0.995706 1.162275
v -0.154352 0.995706 0.549724
v 0.154352 0.995706 0.549724
v 0.154352 0.995706 1.162275
v -0.154352 0.024170 -0.060124
v 0.154352 0.024170 -0.060124
v -0.154352 0.288805 -0.060124
v 0.154352 0.288805 -0.060124
v -0.108509 1.039774 0.549724
v 0.108509 1.039774 0.549724
v 0.108509 1.039774 1.162275
v -0.108509 1.039774 1.162275
v -0.108509 0.332872 -0.060124
v 0.108509 0.332872 -0.060124
v 0.731208 1.105459 1.282002
v 0.731208 1.075569 1.393550
v 0.731208 0.993911 1.475209
v 0.731208 0.882362 1.505098
v 0.731207 0.770815 1.475209
v 0.731207 0.689155 1.393550
v 0.731207 0.659267 1.282002
v 0.731207 0.689155 1.170454
v 0.731207 0.770815 1.088795
v 0.731207 0.882362 1.058906
v 0.731207 0.993912 1.088795
v 0.731207 1.075569 1.170454
v 0.731208 1.147716 1.282002
v 0.731208 1.112167 1.414679
v 0.731208 1.015039 1.511806
v 0.731208 0.882362 1.547356
v 0.731207 0.749685 1.511806
v 0.731207 0.652559 1.414679
v 0.731207 0.617008 1.282002
v 0.731207 0.652559 1.149325
v 0.731207 0.749685 1.052198
v 0.731207 0.882362 1.016647
v 0.731207 1.015039 1.052198
v 0.731207 1.112167 1.149325
v 0.780854 1.147716 1.282002
v 0.780854 1.112167 1.414679
v 0.780854 1.015039 1.511806
v 0.780854 0.882362 1.547356
v 0.780854 0.749685 1.511806
v 0.780854 0.652559 1.414679
v 0.780854 0.617008 1.282002
v 0.780854 0.652559 1.149325
v 0.780854 0.749685 1.052198
v 0.780854 0.882362 1.016647
v 0.780854 1.015039 1.052198
v 0.780854 1.112167 1.149325
v 0.780854 0.985037 1.282002
v 0.780854 0.971281 1.333339
v 0.780854 0.933700 1.370920
v 0.780854 0.882362 1.384676
v 0.780854 0.831026 1.370920
v 0.780854 0.793445 1.333339
v 0.780854 0.779689 1.282002
v 0.780854 0.793445 1.230665
v 0.780854 0.831026 1.193084
v 0.780854 0.882362 1.179328
v 0.780854 0.933700 1.193084
v 0.780854 0.971281 1.230665
v 0.753305 0.985037 1.282002
v 0.753305 0.971281 1.333339
v 0.753305 0.933700 1.370920
v 0.753305 0.882362 1.384676
v 0.753305 0.831026 1.370920
v 0.753305 0.793445 1.333339
v 0.753305 0.779689 1.282002
v 0.753305 0.793445 1.230665
v 0.753305 0.831026 1.193084
v 0.753305 0.882362 1.179328
v 0.753305 0.933700 1.193084
v 0.753305 0.971281 1.230665
v 0.753305 0.882362 1.282002
v -0.731208 1.105459 1.282002
v -0.731208 1.075569 1.393550
v -0.731208 0.993911 1.475209
v -0.731208 0.882362 1.505098
v -0.731207 0.770815 1.475209
v -0.731207 0.689155 1.393550
v -0.731207 0.659267 1.282002
v -0.731207 0.689155 1.170454
v -0.731207 0.770815 1.088795
v -0.731207 0.882362 1.058906
v -0.731207 0.993912 1.088795
v -0.731207 1.075569 1.170454
v 0.000000 1.105457 1.282002
v 0.000000 1.075569 1.393550
v 0.000000 0.993909 1.475209
v 0.000000 0.882362 1.505099
v 0.000000 0.770813 1.475209
v 0.000000 0.689155 1.393550
v 0.000000 0.659265 1.282002
v 0.000000 0.689155 1.170454
v 0.000000 0.770813 1.088795
v 0.000000 0.882362 1.058906
v 0.000000 0.993910 1.088795
v 0.000000 1.075569 1.170454
v -0.731208 1.147716 1.282002
v -0.731208 1.112167 1.414679
v -0.731208 1.015039 1.511806
v -0.731208 0.882362 1.547356
v -0.731207 0.749685 1.511806
v -0.731207 0.652559 1.414679
v -0.731207 0.617008 1.282002
v -0.731207 0.652559 1.149325
v -0.731207 0.749685 1.052198
v -0.731207 0.882362 1.016647
v -0.731207 1.015039 1.052198
v -0.731207 1.112167 1.149325
v -0.780854 1.147716 1.282002
v -0.780854 1.112167 1.414679
v -0.780854 1.015039 1.511806
v -0.780854 0.882362 1.547356
v -0.780854 0.749685 1.511806
v -0.780854 0.652559 1.414679
v -0.780854 0.617008 1.282002
v -0.780854 0.652559 1.149325
v -0.780854 0.749685 1.052198
v -0.780854 0.882362 1.016647
v -0.780854 1.015039 1.052198
v -0.780854 1.112167 1.149325
v -0.780854 0.985037 1.282002
v -0.780854 0.971281 1.333339
v -0.780854 0.933700 1.370920
v -0.780854 0.882362 1.384676
v -0.780854 0.831026 1.370920
v -0.780854 0.793445 1.333339
v -0.780854 0.779689 1.282002
v -0.780854 0.793445 1.230665
v -0.780854 0.831026 1.193084
v -0.780854 0.882362 1.179328
v -0.780854 0.933700 1.193084
v -0.780854 0.971281 1.230665
v -0.753305 0.985037 1.282002
v -0.753305 0.971281 1.333339
v -0.753305 0.933700 1.370920
v -0.753305 0.882362 1.384676
v -0.753305 0.831026 1.370920
v -0.753305 0.793445 1.333339
v -0.753305 0.779689 1.282002
v -0.753305 0.793445 1.230665
v -0.753305 0.831026 1.193084
v -0.753305 0.882362 1.179328
v -0.753305 0.933700 1.193084
v -0.753305 0.971281 1.230665
v -0.753305 0.882362 1.282002
v -0.179582 0.000000 -0.365051
v -0.179583 0.182526 -0.316144
v -0.179583 0.316143 -0.182526
v -0.179583 0.365051 0.000000
v -0.179583 0.316143 0.182526
v -0.179583 0.182526 0.316144
v -0.179582 -0.000000 0.365051
v -0.179582 -0.182526 0.316144
v -0.179582 -0.316143 0.182526
v -0.179582 -0.365051 0.000000
v -0.179582 -0.316143 -0.182526
v -0.179582 -0.182526 -0.316144
v 0.179582 0.000000 -0.365051
v 0.179582 0.182526 -0.316144
v 0.179582 0.316143 -0.182526
v 0.179582 0.365051 0.000000
v 0.179582 0.316143 0.182526
v 0.179582 0.182526 0.316144
v 0.179582 -0.000000 0.365051
v 0.179583 -0.182526 0.316144
v 0.179583 -0.316143 0.182526
v 0.179583 -0.365051 0.000000
v 0.179583 -0.316143 -0.182526
v 0.179583 -0.182526 -0.316144
v 0.179582 0.000000 0.000000
v -0.179582 0.000000 0.000000
vt 0.117174 0.386299
vt 0.133747 0.386299
vt 0.133746 0.393459
vt 0.117174 0.393458
vt 0.133745 0.376986
vt 0.117174 0.376987
vt 0.117174 0.369828
vt 0.133745 0.369827
vt 0.117174 0.384578
vt 0.133747 0.384578
vt 0.150242 0.350703
vt 0.150242 0.357862
vt 0.133745 0.378706
vt 0.134648 0.377241
vt 0.159909 0.377229
vt 0.159007 0.378695
vt 0.150245 0.405427
vt 0.150244 0.412587
vt 0.170440 0.358092
vt 0.170440 0.349740
vt 0.195698 0.349740
vt 0.195698 0.358092
vt 0.117174 0.378707
vt 0.134650 0.386043
vt 0.159010 0.384567
vt 0.159914 0.386031
vt 0.153867 0.349740
vt 0.153867 0.358092
vt 0.140468 0.430665
vt 0.140467 0.433790
vt 0.120683 0.433783
vt 0.120684 0.430659
vt 0.140466 0.436914
vt 0.120682 0.436908
vt 0.140465 0.440039
vt 0.120681 0.440032
vt 0.140464 0.443164
vt 0.120680 0.443157
vt 0.140463 0.446288
vt 0.120679 0.446281
vt 0.140462 0.449413
vt 0.120678 0.449406
vt 0.140473 0.411920
vt 0.140472 0.415044
vt 0.120690 0.415038
vt 0.120691 0.411914
vt 0.140471 0.418168
vt 0.120689 0.418162
vt 0.140470 0.421292
vt 0.120688 0.421286
vt 0.140469 0.424416
vt 0.120687 0.424410
vt 0.140468 0.427541
vt 0.120685 0.427535
vt 0.169488 0.427868
vt 0.166362 0.427868
vt 0.166066 0.426763
vt 0.169784 0.426763
vt 0.173207 0.427872
vt 0.170080 0.427869
vt 0.173504 0.426766
vt 0.176927 0.427876
vt 0.173799 0.427872
vt 0.177224 0.426771
vt 0.180646 0.427881
vt 0.177519 0.427876
vt 0.180944 0.426776
vt 0.184365 0.427887
vt 0.181238 0.427882
vt 0.184664 0.426783
vt 0.188085 0.427894
vt 0.184958 0.427888
vt 0.188383 0.426789
vt 0.147208 0.427889
vt 0.144088 0.427895
vt 0.143790 0.426792
vt 0.147501 0.426785
vt 0.150919 0.427882
vt 0.147799 0.427888
vt 0.151213 0.426779
vt 0.154630 0.427876
vt 0.151510 0.427881
vt 0.154924 0.426772
vt 0.158343 0.427871
vt 0.155221 0.427875
vt 0.158637 0.426767
vt 0.162056 0.427868
vt 0.158933 0.427871
vt 0.162351 0.426764
vt 0.165771 0.427867
vt 0.162647 0.427868
vt 0.166066 0.425419
vt 0.169785 0.425419
vt 0.173505 0.425422
vt 0.177226 0.425426
vt 0.180946 0.425432
vt 0.184666 0.425438
vt 0.188386 0.425444
vt 0.143788 0.425451
vt 0.147499 0.425444
vt 0.151211 0.425437
vt 0.154922 0.425431
vt 0.158635 0.425425
vt 0.162350 0.425421
vt 0.220084 0.361546
vt 0.215145 0.358695
vt 0.219921 0.353919
vt 0.221832 0.355022
vt 0.225787 0.361546
vt 0.224038 0.355022
vt 0.230725 0.358695
vt 0.225949 0.353919
vt 0.233576 0.353756
vt 0.227053 0.352008
vt 0.233576 0.348053
vt 0.227053 0.349802
vt 0.230725 0.343115
vt 0.225949 0.347891
vt 0.225786 0.340263
vt 0.224038 0.346787
vt 0.220084 0.340263
vt 0.221832 0.346787
vt 0.215145 0.343115
vt 0.219921 0.347890
vt 0.212294 0.348053
vt 0.218818 0.349801
vt 0.212294 0.353756
vt 0.218818 0.352008
vt 0.183239 0.429713
vt 0.186817 0.429726
vt 0.186811 0.431581
vt 0.183233 0.431568
vt 0.179660 0.429700
vt 0.179655 0.431555
vt 0.176081 0.429693
vt 0.176078 0.431547
vt 0.172503 0.429688
vt 0.172502 0.431541
vt 0.168927 0.429688
vt 0.168929 0.431540
vt 0.165353 0.429698
vt 0.165358 0.431549
vt 0.161785 0.429710
vt 0.161790 0.431559
vt 0.158222 0.429717
vt 0.158224 0.431565
vt 0.154658 0.429719
vt 0.154660 0.431568
vt 0.151088 0.429723
vt 0.151090 0.431575
vt 0.147516 0.429725
vt 0.147517 0.431578
vt 0.143941 0.429728
vt 0.143942 0.431581
vt 0.243236 0.371899
vt 0.240202 0.373652
vt 0.238450 0.367114
vt 0.244987 0.368865
vt 0.244987 0.365362
vt 0.243235 0.362329
vt 0.240202 0.360578
vt 0.236699 0.360578
vt 0.233666 0.362329
vt 0.231914 0.365362
vt 0.231914 0.368864
vt 0.233665 0.371899
vt 0.236699 0.373650
vt 0.201044 0.360315
vt 0.210760 0.360313
vt 0.210761 0.365425
vt 0.201045 0.365427
vt 0.210762 0.370538
vt 0.201045 0.370539
vt 0.210763 0.375651
vt 0.201045 0.375652
vt 0.201038 0.314321
vt 0.210751 0.314320
vt 0.210752 0.319430
vt 0.201039 0.319431
vt 0.210753 0.324540
vt 0.201040 0.324541
vt 0.210754 0.329650
vt 0.201041 0.329651
vt 0.210754 0.334760
vt 0.201041 0.334762
vt 0.210755 0.339870
vt 0.201042 0.339872
vt 0.210756 0.344981
vt 0.201043 0.344982
vt 0.210757 0.350091
vt 0.201043 0.350093
vt 0.210759 0.355202
vt 0.201044 0.355204
vt 0.213319 0.366108
vt 0.217749 0.363550
vt 0.220306 0.373094
vt 0.213320 0.380081
vt 0.217749 0.382638
vt 0.222864 0.382637
vt 0.227293 0.380080
vt 0.229850 0.375651
vt 0.229850 0.370536
vt 0.227293 0.366107
vt 0.222863 0.363550
vt 0.188946 0.363554
vt 0.194060 0.363554
vt 0.191503 0.373095
vt 0.184518 0.366110
vt 0.181961 0.370539
vt 0.181961 0.375652
vt 0.184517 0.380081
vt 0.188946 0.382638
vt 0.194060 0.382637
vt 0.198488 0.380081
vt 0.198488 0.366111
vn -0.920100 0.391800 0.000000
vn -0.859300 0.440500 -0.260000
vn -0.813800 -0.528300 0.242000
vn -0.707100 -0.707100 -0.000000
vn 0.859300 0.440500 -0.260000
vn 0.920100 0.391800 0.000000
vn 0.707100 -0.707100 -0.000000
vn 0.813800 -0.528300 0.242000
vn -0.373500 0.927600 0.000000
vn -0.329500 0.867600 -0.372400
vn 0.412800 -0.595000 0.689700
vn 0.960400 0.182100 -0.211100
vn 0.329500 0.867600 -0.372400
vn 0.317800 0.619400 -0.717900
vn -0.960400 0.182100 -0.211100
vn -0.412800 -0.595000 0.689700
vn 0.373500 0.927600 0.000000
vn -0.317800 0.619400 -0.717900
vn -0.770300 0.637700 0.000000
vn -0.770300 0.552300 -0.318900
vn 0.000000 0.866000 -0.500000
vn 0.000000 1.000000 0.000000
vn -0.770300 0.318900 -0.552300
vn 0.000000 0.500000 -0.866000
vn -0.770300 0.000000 -0.637700
vn 0.000000 0.000000 -1.000000
vn -0.770300 -0.318900 -0.552300
vn 0.000000 -0.500000 -0.866000
vn -0.770300 -0.552300 -0.318900
vn 0.000000 -0.866000 -0.500000
vn -0.770300 -0.637700 0.000000
vn 0.000000 -1.000000 0.000000
vn -0.770300 -0.552300 0.318900
vn 0.000000 -0.866000 0.500000
vn -0.770300 -0.318900 0.552300
vn 0.000000 -0.500000 0.866000
vn -0.770300 0.000000 0.637700
vn 0.000000 0.000000 1.000000
vn -0.770300 0.318900 0.552300
vn 0.000000 0.500000 0.866000
vn -0.770300 0.552300 0.318900
vn 0.000000 0.866000 0.500000
vn -0.653200 0.757100 0.000000
vn -0.653200 0.655700 -0.378600
vn -0.653200 0.378600 -0.655700
vn -0.653200 0.000000 -0.757100
vn -0.653200 -0.378600 -0.655700
vn -0.653200 -0.655700 -0.378600
vn -0.653200 -0.757100 0.000000
vn -0.653200 -0.655700 0.378600
vn -0.653200 -0.378600 0.655700
vn -0.653200 0.000000 0.757100
vn -0.653200 0.378600 0.655700
vn -0.653200 0.655700 0.378600
vn 0.653200 0.757100 0.000000
vn 0.653200 0.655700 -0.378600
vn 0.653200 0.378600 -0.655700
vn 0.653200 0.000000 -0.757100
vn 0.653200 -0.378600 -0.655700
vn 0.653200 -0.655700 -0.378600
vn 0.653200 -0.757100 0.000000
vn 0.653200 -0.655700 0.378600
vn 0.653200 -0.378600 0.655700
vn 0.653200 0.000000 0.757100
vn 0.653200 0.378600 0.655700
vn 0.653200 0.655700 0.378600
vn 0.770300 -0.637700 0.000000
vn 0.770300 -0.552300 0.318900
vn 0.770300 -0.318900 0.552300
vn 0.770300 0.000000 0.637700
vn 0.770300 0.318900 0.552300
vn 0.770300 0.552300 0.318900
vn 0.770300 0.637700 0.000000
vn 0.770300 0.552300 -0.318900
vn 0.770300 0.318900 -0.552300
vn 0.770300 0.000000 -0.637700
vn 0.770300 -0.318900 -0.552300
vn 0.770300 -0.552300 -0.318900
vn 1.000000 0.000000 0.000000
vn -1.000000 0.000000 0.000000
s 1
f 5/1/1 6/2/2 2/3/3 1/4/4
f 7/5/5 8/6/6 4/7/7 3/8/8
f 16/9/9 13/10/10 6/2/2 5/1/1
f 7/5/5 3/8/8 10/11/11 12/12/12
f 14/13/13 7/14/5 12/15/12 18/16/14
f 2/3/3 6/2/2 11/17/15 9/18/16
f 3/19/8 2/20/3 9/21/16 10/22/11
f 8/6/6 7/5/5 14/13/13 15/23/17
f 15/23/17 14/13/13 13/10/10 16/9/9
f 6/24/2 13/10/10 17/25/18 11/26/15
f 13/10/10 14/13/13 18/16/14 17/25/18
f 1/27/4 2/20/3 3/19/8 4/28/7
s 2
f 19/29/19 30/30/20 103/31/21 92/32/22
f 30/30/20 29/33/23 102/34/24 103/31/21
f 29/33/23 28/35/25 101/36/26 102/34/24
f 28/35/25 27/37/27 100/38/28 101/36/26
f 27/37/27 26/39/29 99/40/30 100/38/28
f 26/39/29 25/41/31 98/42/32 99/40/30
f 25/43/31 24/44/33 97/45/34 98/46/32
f 24/44/33 23/47/35 96/48/36 97/45/34
f 23/47/35 22/49/37 95/50/38 96/48/36
f 22/49/37 21/51/39 94/52/40 95/50/38
f 21/51/39 20/53/41 93/54/42 94/52/40
f 20/53/41 19/29/19 92/32/22 93/54/42
f 30/55/20 19/56/19 31/57/43 42/58/44
f 29/59/23 30/60/20 42/58/44 41/61/45
f 28/62/25 29/63/23 41/61/45 40/64/46
f 27/65/27 28/66/25 40/64/46 39/67/47
f 26/68/29 27/69/27 39/67/47 38/70/48
f 25/71/31 26/72/29 38/70/48 37/73/49
f 24/74/33 25/75/31 37/76/49 36/77/50
f 23/78/35 24/79/33 36/77/50 35/80/51
f 22/81/37 23/82/35 35/80/51 34/83/52
f 21/84/39 22/85/37 34/83/52 33/86/53
f 20/87/41 21/88/39 33/86/53 32/89/54
f 19/90/19 20/91/41 32/89/54 31/57/43
f 42/58/44 31/57/43 43/92/55 54/93/56
f 41/61/45 42/58/44 54/93/56 53/94/57
f 40/64/46 41/61/45 53/94/57 52/95/58
f 39/67/47 40/64/46 52/95/58 51/96/59
f 38/70/48 39/67/47 51/96/59 50/97/60
f 37/73/49 38/70/48 50/97/60 49/98/61
f 36/77/50 37/76/49 49/99/61 48/100/62
f 35/80/51 36/77/50 48/100/62 47/101/63
f 34/83/52 35/80/51 47/101/63 46/102/64
f 33/86/53 34/83/52 46/102/64 45/103/65
f 32/89/54 33/86/53 45/103/65 44/104/66
f 31/57/43 32/89/54 44/104/66 43/92/55
f 54/105/56 43/106/55 55/107/67 66/108/68
f 53/109/57 54/105/56 66/108/68 65/110/69
f 52/111/58 53/109/57 65/110/69 64/112/70
f 51/113/59 52/111/58 64/112/70 63/114/71
f 50/115/60 51/113/59 63/114/71 62/116/72
f 49/117/61 50/115/60 62/116/72 61/118/73
f 48/119/62 49/117/61 61/118/73 60/120/74
f 47/121/63 48/119/62 60/120/74 59/122/75
f 46/123/64 47/121/63 59/122/75 58/124/76
f 45/125/65 46/123/64 58/124/76 57/126/77
f 44/127/66 45/125/65 57/126/77 56/128/78
f 43/106/55 44/127/66 56/128/78 55/107/67
f 66/129/68 55/130/67 67/131/61 78/132/62
f 65/133/69 66/129/68 78/132/62 77/134/63
f 64/135/70 65/133/69 77/134/63 76/136/64
f 63/137/71 64/135/70 76/136/64 75/138/65
f 62/139/72 63/137/71 75/138/65 74/140/66
f 61/141/73 62/139/72 74/140/66 73/142/55
f 60/143/74 61/141/73 73/142/55 72/144/56
f 59/145/75 60/143/74 72/144/56 71/146/57
f 58/147/76 59/145/75 71/146/57 70/148/58
f 57/149/77 58/147/76 70/148/58 69/150/59
f 56/151/78 57/149/77 69/150/59 68/152/60
f 55/153/67 56/151/78 68/152/60 67/154/61
f 78/155/62 67/156/61 79/157/79
f 77/158/63 78/155/62 79/157/79
f 76/159/64 77/158/63 79/157/79
f 75/160/65 76/159/64 79/157/79
f 74/161/66 75/160/65 79/157/79
f 73/162/55 74/161/66 79/157/79
f 72/163/56 73/162/55 79/157/79
f 71/164/57 72/163/56 79/157/79
f 70/165/58 71/164/57 79/157/79
f 69/166/59 70/165/58 79/157/79
f 68/167/60 69/166/59 79/157/79
f 67/156/61 68/167/60 79/157/79
f 80/29/73 92/32/22 103/31/21 91/30/74
f 91/30/74 103/31/21 102/34/24 90/33/75
f 90/33/75 102/34/24 101/36/26 89/35/76
f 89/35/76 101/36/26 100/38/28 88/37/77
f 88/37/77 100/38/28 99/40/30 87/39/78
f 87/39/78 99/40/30 98/42/32 86/41/67
f 86/43/67 98/46/32 97/45/34 85/44/68
f 85/44/68 97/45/34 96/48/36 84/47/69
f 84/47/69 96/48/36 95/50/38 83/49/70
f 83/49/70 95/50/38 94/52/40 82/51/71
f 82/51/71 94/52/40 93/54/42 81/53/72
f 81/53/72 93/54/42 92/32/22 80/29/73
f 91/55/74 115/58/56 104/57/55 80/56/73
f 90/59/75 114/61/57 115/58/56 91/60/74
f 89/62/76 113/64/58 114/61/57 90/63/75
f 88/65/77 112/67/59 113/64/58 89/66/76
f 87/68/78 111/70/60 112/67/59 88/69/77
f 86/71/67 110/73/61 111/70/60 87/72/78
f 85/74/68 109/77/62 110/76/61 86/75/67
f 84/78/69 108/80/63 109/77/62 85/79/68
f 83/81/70 107/83/64 108/80/63 84/82/69
f 82/84/71 106/86/65 107/83/64 83/85/70
f 81/87/72 105/89/66 106/86/65 82/88/71
f 80/90/73 104/57/55 105/89/66 81/91/72
f 115/58/56 127/93/44 116/92/43 104/57/55
f 114/61/57 126/94/45 127/93/44 115/58/56
f 113/64/58 125/95/46 126/94/45 114/61/57
f 112/67/59 124/96/47 125/95/46 113/64/58
f 111/70/60 123/97/48 124/96/47 112/67/59
f 110/73/61 122/98/49 123/97/48 111/70/60
f 109/77/62 121/100/50 122/99/49 110/76/61
f 108/80/63 120/101/51 121/100/50 109/77/62
f 107/83/64 119/102/52 120/101/51 108/80/63
f 106/86/65 118/103/53 119/102/52 107/83/64
f 105/89/66 117/104/54 118/103/53 106/86/65
f 104/57/55 116/92/43 117/104/54 105/89/66
f 127/105/44 139/108/33 128/107/31 116/106/43
f 126/109/45 138/110/35 139/108/33 127/105/44
f 125/111/46 137/112/37 138/110/35 126/109/45
f 124/113/47 136/114/39 137/112/37 125/111/46
f 123/115/48 135/116/41 136/114/39 124/113/47
f 122/117/49 134/118/19 135/116/41 123/115/48
f 121/119/50 133/120/20 134/118/19 122/117/49
f 120/121/51 132/122/23 133/120/20 121/119/50
f 119/123/52 131/124/25 132/122/23 120/121/51
f 118/125/53 130/126/27 131/124/25 119/123/52
f 117/127/54 129/128/29 130/126/27 118/125/53
f 116/106/43 128/107/31 129/128/29 117/127/54
f 139/129/33 151/132/50 140/131/49 128/130/31
f 138/133/35 150/134/51 151/132/50 139/129/33
f 137/135/37 149/136/52 150/134/51 138/133/35
f 136/137/39 148/138/53 149/136/52 137/135/37
f 135/139/41 147/140/54 148/138/53 136/137/39
f 134/141/19 146/142/43 147/140/54 135/139/41
f 133/143/20 145/144/44 146/142/43 134/141/19
f 132/145/23 144/146/45 145/144/44 133/143/20
f 131/147/25 143/148/46 144/146/45 132/145/23
f 130/149/27 142/150/47 143/148/46 131/147/25
f 129/151/29 141/152/48 142/150/47 130/149/27
f 128/153/31 140/154/49 141/152/48 129/151/29
f 151/155/50 152/157/80 140/156/49
f 150/158/51 152/157/80 151/155/50
f 149/159/52 152/157/80 150/158/51
f 148/160/53 152/157/80 149/159/52
f 147/161/54 152/157/80 148/160/53
f 146/162/43 152/157/80 147/161/54
f 145/163/44 152/157/80 146/162/43
f 144/164/45 152/157/80 145/163/44
f 143/165/46 152/157/80 144/164/45
f 142/166/47 152/157/80 143/165/46
f 141/167/48 152/157/80 142/166/47
f 140/156/49 152/157/80 141/167/48
s 3
f 153/168/46 165/169/58 176/170/59 164/171/47
f 164/171/47 176/170/59 175/172/60 163/173/48
f 163/173/48 175/172/60 174/174/61 162/175/49
f 162/176/49 174/177/61 173/178/62 161/179/50
f 161/179/50 173/178/62 172/180/63 160/181/51
f 160/181/51 172/180/63 171/182/64 159/183/52
f 159/183/52 171/182/64 170/184/65 158/185/53
f 158/185/53 170/184/65 169/186/66 157/187/54
f 157/187/54 169/186/66 168/188/55 156/189/43
f 156/189/43 168/188/55 167/190/56 155/191/44
f 155/191/44 167/190/56 166/192/57 154/193/45
f 154/193/45 166/192/57 165/169/58 153/168/46
f 176/194/59 165/195/58 177/196/79
f 175/172/60 176/194/59 177/196/79
f 174/174/61 175/172/60 177/196/79
f 173/197/62 174/174/61 177/196/79
f 172/198/63 173/197/62 177/196/79
f 171/199/64 172/198/63 177/196/79
f 170/200/65 171/199/64 177/196/79
f 169/201/66 170/200/65 177/196/79
f 168/202/55 169/201/66 177/196/79
f 167/203/56 168/202/55 177/196/79
f 166/204/57 167/203/56 177/196/79
f 165/195/58 166/204/57 177/196/79
f 154/205/45 153/206/46 178/207/80
f 155/208/44 154/205/45 178/207/80
f 156/209/43 155/208/44 178/207/80
f 157/210/54 156/209/43 178/207/80
f 158/211/53 157/210/54 178/207/80
f 159/212/52 158/211/53 178/207/80
f 160/213/51 159/212/52 178/207/80
f 161/214/50 160/213/51 178/207/80
f 162/175/49 161/214/50 178/207/80
f 163/173/48 162/175/49 178/207/80
f 164/215/47 163/173/48 178/207/80
f 153/206/46 164/215/47 178/207/80
