# Blender v2.71 (sub 0) OBJ File: 'SpaceshipCockpits.blend'
# www.blender.org
o CockpitPanelType3Right_Circle.026
v -0.920143 0.000000 -0.572618
v -0.869904 0.000000 -0.636906
v -0.869565 -0.000001 0.636906
v 0.869566 -0.000001 0.636906
v 0.920144 0.000000 -0.062172
v 0.869904 0.000001 -0.126461
v -0.920143 -0.000001 0.571351
v 0.920144 -0.000001 0.571351
v -0.125669 0.000000 -0.636906
vt 0.655127 0.978276
vt 0.336317 0.978276
vt 0.336317 0.868525
vt 0.646364 0.989633
vt 0.345079 0.989633
vt 0.655127 0.780095
vt 0.517492 0.768958
vt 0.646423 0.768958
vt 0.345020 0.857388
vn 0.000000 1.000000 0.000000
s off
f 7/1/1 8/2/1 5/3/1
f 3/4/1 4/5/1 8/2/1 7/1/1
f 1/6/1 7/1/1 9/7/1 2/8/1
f 7/1/1 5/3/1 6/9/1 9/7/1
