# Blender v2.71 (sub 0) OBJ File: 'SpaceshipCockpits.blend'
# www.blender.org
o CockpitPanelType1Left_Circle.018
v 1.514327 -0.000001 -0.366987
v 1.431645 -0.000000 -0.443450
v 1.431089 -0.000001 0.443450
v -1.431089 0.000000 0.443450
v -1.514327 0.000001 -0.366987
v -1.431645 0.000001 -0.443450
v 1.514327 -0.000001 0.366175
v -1.514327 0.000001 0.366175
vt 0.004418 0.018395
vt 0.018742 0.005148
vt 0.514775 0.005147
vt 0.529100 0.018394
vt 0.018839 0.158794
vt 0.004419 0.145407
vt 0.529100 0.145406
vt 0.514682 0.158792
vn 0.000000 1.000000 0.000000
s off
f 1/1/1 2/2/1 6/3/1 5/4/1
f 3/5/1 7/6/1 8/7/1 4/8/1
f 7/6/1 1/1/1 5/4/1 8/7/1
