# Blender v2.71 (sub 0) OBJ File: 'SpaceshipCockpits.blend'
# www.blender.org
o CockpitPanelLeft_Circle.016
v -1.187644 0.000000 -0.572618
v -1.122799 0.000001 -0.636907
v -1.122363 -0.000001 0.636907
v 1.122363 -0.000001 0.636907
v 1.187644 0.000000 -0.572618
v 1.122799 0.000001 -0.636907
v -1.187644 -0.000000 0.571351
v 1.187644 -0.000000 0.571351
vt 0.541892 0.214737
vt 0.953384 0.214737
vt 0.942151 0.225874
vt 0.553126 0.225875
vt 0.553201 0.005200
vt 0.942075 0.005200
vt 0.953384 0.016557
vt 0.541892 0.016557
vn 0.000000 1.000000 0.000000
s off
f 1/1/1 5/2/1 6/3/1 2/4/1
f 3/5/1 4/6/1 8/7/1 7/8/1
f 7/8/1 8/7/1 5/2/1 1/1/1
