# Blender v2.71 (sub 0) OBJ File: 'SpaceshipCockpits.blend'
# www.blender.org
o CockpitPanelType3Left_Circle.020
v 0.920143 0.000000 -0.572618
v 0.869904 0.000000 -0.636906
v 0.869566 -0.000001 0.636906
v -0.869566 -0.000001 0.636906
v -0.920143 0.000000 -0.062172
v -0.869904 0.000001 -0.126461
v 0.920143 -0.000001 0.571351
v -0.920143 -0.000001 0.571351
v 0.125669 0.000000 -0.636906
vt 0.008241 0.978987
vt 0.327051 0.869235
vt 0.327051 0.978986
vt 0.017003 0.990343
vt 0.318289 0.990343
vt 0.008241 0.780806
vt 0.016944 0.769669
vt 0.145875 0.769669
vt 0.318347 0.858097
vn 0.000000 1.000000 0.000000
s off
f 7/1/1 5/2/1 8/3/1
f 3/4/1 7/1/1 8/3/1 4/5/1
f 1/6/1 2/7/1 9/8/1 7/1/1
f 7/1/1 9/8/1 6/9/1 5/2/1
