# Blender v2.71 (sub 0) OBJ File: 'SpaceshipCockpits.blend'
# www.blender.org
o CockpitPanelType1Right_Circle.022
v -1.514326 0.000000 -0.366987
v -1.431644 0.000000 -0.443450
v -1.431088 -0.000000 0.443450
v 1.431088 -0.000000 0.443450
v 1.514326 0.000000 -0.366987
v 1.431644 0.000000 -0.443450
v -1.514326 -0.000000 0.366175
v 1.514326 -0.000000 0.366175
vt 0.530124 0.177722
vt 0.005443 0.177722
vt 0.019766 0.164476
vt 0.515798 0.164473
vt 0.515707 0.318119
vt 0.019863 0.318122
vt 0.005443 0.304735
vt 0.530124 0.304734
vn 0.000000 1.000000 0.000000
s off
f 1/1/1 5/2/1 6/3/1 2/4/1
f 3/5/1 4/6/1 8/7/1 7/8/1
f 7/8/1 8/7/1 5/2/1 1/1/1
